<svg width="20" height="20" viewBox="0 0 20 20" fill="none" xmlns="http://www.w3.org/2000/svg">
<g clip-path="url(#clip0_23646_40552)">
<path d="M17.2727 2.26953H2.72727C2.00396 2.26953 1.31026 2.55687 0.7988 3.06833C0.287337 3.57979 0 4.27349 0 4.9968V16.815C0 17.0561 0.0957789 17.2873 0.266267 17.4578C0.436754 17.6283 0.667985 17.7241 0.909091 17.7241H4.54545C4.69519 17.7233 4.84241 17.6856 4.97405 17.6142C5.10568 17.5428 5.21765 17.44 5.3 17.315L6.85455 14.9968H13.1455L14.7 17.315C14.7824 17.44 14.8943 17.5428 15.026 17.6142C15.1576 17.6856 15.3048 17.7233 15.4545 17.7241H19.0909C19.332 17.7241 19.5632 17.6283 19.7337 17.4578C19.9042 17.2873 20 17.0561 20 16.815V4.9968C20 4.27349 19.7127 3.57979 19.2012 3.06833C18.6897 2.55687 17.996 2.26953 17.2727 2.26953ZM18.1818 15.9059H15.9455L14.3909 13.6332C14.314 13.4997 14.2044 13.3879 14.0724 13.3084C13.9404 13.2289 13.7903 13.1842 13.6364 13.1786H6.36364C6.2139 13.1794 6.06668 13.2171 5.93504 13.2885C5.80341 13.3599 5.69144 13.4627 5.60909 13.5877L4.05455 15.9059H1.81818V11.3604H18.1818V15.9059ZM5.45455 9.54226V8.63317C5.45455 8.39206 5.55032 8.16083 5.72081 7.99034C5.8913 7.81986 6.12253 7.72408 6.36364 7.72408H8.18182C8.42292 7.72408 8.65416 7.81986 8.82464 7.99034C8.99513 8.16083 9.09091 8.39206 9.09091 8.63317V9.54226H5.45455ZM10.9091 9.54226V8.63317C10.9091 8.39206 11.0049 8.16083 11.1754 7.99034C11.3458 7.81986 11.5771 7.72408 11.8182 7.72408H13.6364C13.8775 7.72408 14.1087 7.81986 14.2792 7.99034C14.4497 8.16083 14.5455 8.39206 14.5455 8.63317V9.54226H10.9091ZM18.1818 9.54226H16.3636V8.63317C16.3636 7.90985 16.0763 7.21616 15.5648 6.70469C15.0534 6.19323 14.3597 5.90589 13.6364 5.90589H11.8182C11.1454 5.9099 10.4979 6.16245 10 6.61499C9.50215 6.16245 8.8546 5.9099 8.18182 5.90589H6.36364C5.64032 5.90589 4.94663 6.19323 4.43516 6.70469C3.9237 7.21616 3.63636 7.90985 3.63636 8.63317V9.54226H1.81818V4.9968C1.81818 4.7557 1.91396 4.52447 2.08445 4.35398C2.25494 4.18349 2.48617 4.08771 2.72727 4.08771H17.2727C17.5138 4.08771 17.7451 4.18349 17.9156 4.35398C18.086 4.52447 18.1818 4.7557 18.1818 4.9968V9.54226Z" fill="#EFF2F6"/>
</g>
<defs>
<clipPath id="clip0_23646_40552">
<rect width="20" height="20" fill="white"/>
</clipPath>
</defs>
</svg>
