<svg width="20" height="20" viewBox="0 0 20 20" fill="none" xmlns="http://www.w3.org/2000/svg">
<path d="M12 9H11V5H13C13.2652 5 13.5196 5.10536 13.7071 5.29289C13.8946 5.48043 14 5.73478 14 6C14 6.26522 14.1054 6.51957 14.2929 6.70711C14.4804 6.89464 14.7348 7 15 7C15.2652 7 15.5196 6.89464 15.7071 6.70711C15.8946 6.51957 16 6.26522 16 6C16 5.20435 15.6839 4.44129 15.1213 3.87868C14.5587 3.31607 13.7956 3 13 3H11V1C11 0.734784 10.8946 0.48043 10.7071 0.292893C10.5196 0.105357 10.2652 0 10 0C9.73478 0 9.48043 0.105357 9.29289 0.292893C9.10536 0.48043 9 0.734784 9 1V3H8C6.93913 3 5.92172 3.42143 5.17157 4.17157C4.42143 4.92172 4 5.93913 4 7C4 8.06087 4.42143 9.07828 5.17157 9.82843C5.92172 10.5786 6.93913 11 8 11H9V15H7C6.73478 15 6.48043 14.8946 6.29289 14.7071C6.10536 14.5196 6 14.2652 6 14C6 13.7348 5.89464 13.4804 5.70711 13.2929C5.51957 13.1054 5.26522 13 5 13C4.73478 13 4.48043 13.1054 4.29289 13.2929C4.10536 13.4804 4 13.7348 4 14C4 14.7956 4.31607 15.5587 4.87868 16.1213C5.44129 16.6839 6.20435 17 7 17H9V19C9 19.2652 9.10536 19.5196 9.29289 19.7071C9.48043 19.8946 9.73478 20 10 20C10.2652 20 10.5196 19.8946 10.7071 19.7071C10.8946 19.5196 11 19.2652 11 19V17H12C13.0609 17 14.0783 16.5786 14.8284 15.8284C15.5786 15.0783 16 14.0609 16 13C16 11.9391 15.5786 10.9217 14.8284 10.1716C14.0783 9.42143 13.0609 9 12 9ZM9 9H8C7.46957 9 6.96086 8.78929 6.58579 8.41421C6.21071 8.03914 6 7.53043 6 7C6 6.46957 6.21071 5.96086 6.58579 5.58579C6.96086 5.21071 7.46957 5 8 5H9V9ZM12 15H11V11H12C12.5304 11 13.0391 11.2107 13.4142 11.5858C13.7893 11.9609 14 12.4696 14 13C14 13.5304 13.7893 14.0391 13.4142 14.4142C13.0391 14.7893 12.5304 15 12 15Z" fill="#141824"/>
</svg>
