<svg width="20" height="20" viewBox="0 0 20 20" fill="none" xmlns="http://www.w3.org/2000/svg">
<path d="M9.55078 17.1953H4.15234C3.91372 17.1953 3.68486 17.1005 3.51613 16.9318C3.3474 16.763 3.2526 16.5342 3.2526 16.2956V3.69922C3.2526 3.46059 3.3474 3.23174 3.51613 3.06301C3.68486 2.89427 3.91372 2.79948 4.15234 2.79948H8.65104V5.4987C8.65104 6.21457 8.93542 6.90113 9.44162 7.40733C9.94782 7.91353 10.6344 8.19791 11.3503 8.19791H14.0495V12.6966C14.0495 12.9352 14.1443 13.1641 14.313 13.3328C14.4817 13.5016 14.7106 13.5963 14.9492 13.5963C15.1878 13.5963 15.4167 13.5016 15.5854 13.3328C15.7542 13.1641 15.849 12.9352 15.849 12.6966V7.29817C15.849 7.29817 15.849 7.29817 15.849 7.24419C15.8396 7.16153 15.8215 7.0801 15.795 7.00126V6.92028C15.7517 6.82777 15.694 6.74273 15.624 6.66836L10.2256 1.26992C10.1512 1.19994 10.0662 1.14223 9.97365 1.09897C9.94389 1.09376 9.91345 1.09376 9.88368 1.09897C9.79619 1.05219 9.70217 1.01882 9.60476 1H4.15234C3.43647 1 2.74991 1.28438 2.24371 1.79058C1.73751 2.29678 1.45313 2.98334 1.45312 3.69922V16.2956C1.45313 17.0114 1.73751 17.698 2.24371 18.2042C2.74991 18.7104 3.43647 18.9948 4.15234 18.9948H9.55078C9.7894 18.9948 10.0183 18.9 10.187 18.7313C10.3557 18.5625 10.4505 18.3337 10.4505 18.095C10.4505 17.8564 10.3557 17.6276 10.187 17.4588C10.0183 17.2901 9.7894 17.1953 9.55078 17.1953ZM10.4505 4.06811L12.7808 6.39843H11.3503C11.1116 6.39843 10.8828 6.30364 10.714 6.13491C10.5453 5.96617 10.4505 5.73732 10.4505 5.4987V4.06811ZM5.95182 11.7969H11.3503C11.5889 11.7969 11.8177 11.7021 11.9865 11.5333C12.1552 11.3646 12.25 11.1358 12.25 10.8971C12.25 10.6585 12.1552 10.4297 11.9865 10.2609C11.8177 10.0922 11.5889 9.99739 11.3503 9.99739H5.95182C5.71319 9.99739 5.48434 10.0922 5.31561 10.2609C5.14688 10.4297 5.05208 10.6585 5.05208 10.8971C5.05208 11.1358 5.14688 11.3646 5.31561 11.5333C5.48434 11.7021 5.71319 11.7969 5.95182 11.7969ZM9.55078 13.5963H5.95182C5.71319 13.5963 5.48434 13.6911 5.31561 13.8599C5.14688 14.0286 5.05208 14.2575 5.05208 14.4961C5.05208 14.7347 5.14688 14.9636 5.31561 15.1323C5.48434 15.301 5.71319 15.3958 5.95182 15.3958H9.55078C9.7894 15.3958 10.0183 15.301 10.187 15.1323C10.3557 14.9636 10.4505 14.7347 10.4505 14.4961C10.4505 14.2575 10.3557 14.0286 10.187 13.8599C10.0183 13.6911 9.7894 13.5963 9.55078 13.5963ZM5.95182 8.19791H6.85156C7.09019 8.19791 7.31904 8.10312 7.48777 7.93439C7.6565 7.76565 7.7513 7.5368 7.7513 7.29817C7.7513 7.05955 7.6565 6.8307 7.48777 6.66196C7.31904 6.49323 7.09019 6.39843 6.85156 6.39843H5.95182C5.71319 6.39843 5.48434 6.49323 5.31561 6.66196C5.14688 6.8307 5.05208 7.05955 5.05208 7.29817C5.05208 7.5368 5.14688 7.76565 5.31561 7.93439C5.48434 8.10312 5.71319 8.19791 5.95182 8.19791ZM18.2872 13.8573C18.2036 13.7729 18.1041 13.706 17.9944 13.6603C17.8848 13.6146 17.7672 13.5911 17.6484 13.5911C17.5297 13.5911 17.4121 13.6146 17.3024 13.6603C17.1928 13.706 17.0933 13.7729 17.0096 13.8573L14.0495 16.8264L12.8888 15.6568C12.8049 15.5729 12.7053 15.5063 12.5957 15.4609C12.4861 15.4155 12.3686 15.3921 12.25 15.3921C12.1314 15.3921 12.0139 15.4155 11.9043 15.4609C11.7947 15.5063 11.6951 15.5729 11.6112 15.6568C11.5273 15.7406 11.4607 15.8402 11.4153 15.9498C11.3699 16.0594 11.3466 16.1769 11.3466 16.2956C11.3466 16.4142 11.3699 16.5317 11.4153 16.6413C11.4607 16.7509 11.5273 16.8505 11.6112 16.9344L13.4107 18.7339C13.4943 18.8182 13.5938 18.8851 13.7035 18.9308C13.8131 18.9765 13.9307 19 14.0495 19C14.1682 19 14.2858 18.9765 14.3955 18.9308C14.5051 18.8851 14.6046 18.8182 14.6883 18.7339L18.2872 15.1349C18.3716 15.0513 18.4385 14.9517 18.4842 14.8421C18.5299 14.7325 18.5534 14.6149 18.5534 14.4961C18.5534 14.3773 18.5299 14.2597 18.4842 14.1501C18.4385 14.0404 18.3716 13.9409 18.2872 13.8573Z" fill="#EFF2F6"/>
</svg>
