<svg width="20" height="20" viewBox="0 0 20 20" fill="none" xmlns="http://www.w3.org/2000/svg">
<g clip-path="url(#clip0_23233_26349)">
<path d="M9.99997 -0.00390625C7.87825 -0.00390625 5.84342 0.838946 4.34314 2.33923C2.84285 3.83952 2 5.87434 2 7.99607C2 13.3961 9.04998 19.496 9.34998 19.756C9.53111 19.911 9.76162 19.9961 9.99997 19.9961C10.2383 19.9961 10.4688 19.911 10.65 19.756C11 19.496 17.9999 13.3961 17.9999 7.99607C17.9999 5.87434 17.1571 3.83952 15.6568 2.33923C14.1565 0.838946 12.1217 -0.00390625 9.99997 -0.00390625ZM9.99997 17.646C7.86998 15.646 3.99999 11.3361 3.99999 7.99607C3.99999 6.40477 4.63213 4.87866 5.75735 3.75344C6.88256 2.62823 8.40868 1.99609 9.99997 1.99609C11.5913 1.99609 13.1174 2.62823 14.2426 3.75344C15.3678 4.87866 16 6.40477 16 7.99607C16 11.3361 12.13 15.656 9.99997 17.646ZM9.99997 3.99608C9.20885 3.99608 8.4355 4.23068 7.7777 4.6702C7.11991 5.10972 6.60722 5.73444 6.30447 6.46534C6.00172 7.19624 5.9225 8.00051 6.07685 8.77643C6.23119 9.55235 6.61215 10.2651 7.17156 10.8245C7.73096 11.3839 8.44369 11.7649 9.21962 11.9192C9.99554 12.0735 10.7998 11.9943 11.5307 11.6916C12.2616 11.3888 12.8863 10.8761 13.3258 10.2183C13.7654 9.56055 14 8.78719 14 7.99607C14 6.93521 13.5785 5.91779 12.8284 5.16765C12.0782 4.41751 11.0608 3.99608 9.99997 3.99608ZM9.99997 9.99606C9.60441 9.99606 9.21773 9.87876 8.88884 9.659C8.55994 9.43924 8.3036 9.12688 8.15222 8.76143C8.00085 8.39598 7.96124 7.99385 8.03841 7.60589C8.11558 7.21793 8.30606 6.86156 8.58577 6.58186C8.86547 6.30216 9.22183 6.11167 9.60979 6.0345C9.99776 5.95733 10.3999 5.99694 10.7653 6.14831C11.1308 6.29969 11.4431 6.55603 11.6629 6.88493C11.8827 7.21383 12 7.60051 12 7.99607C12 8.5265 11.7893 9.03521 11.4142 9.41028C11.0391 9.78535 10.5304 9.99606 9.99997 9.99606Z" fill="#141824"/>
</g>
<defs>
<clipPath id="clip0_23233_26349">
<rect width="20" height="20" fill="white"/>
</clipPath>
</defs>
</svg>
