<svg width="20" height="20" viewBox="0 0 20 20" fill="none" xmlns="http://www.w3.org/2000/svg">
<path d="M16.3 0.996094H3.7C2.98392 0.996094 2.29716 1.28056 1.79081 1.78691C1.28446 2.29325 1 2.98001 1 3.69609V16.2961C1 17.0122 1.28446 17.6989 1.79081 18.2053C2.29716 18.7116 2.98392 18.9961 3.7 18.9961H16.3C16.448 18.994 16.5956 18.979 16.741 18.9511L17.011 18.8881H17.074H17.119L17.452 18.7621L17.569 18.6991C17.659 18.6451 17.758 18.6001 17.848 18.5371C17.9682 18.4487 18.0824 18.3525 18.19 18.2491L18.253 18.1681C18.3414 18.0786 18.4226 17.9823 18.496 17.8801L18.577 17.7631C18.6399 17.6629 18.6941 17.5575 18.739 17.4481C18.7637 17.4049 18.7848 17.3598 18.802 17.3131C18.847 17.2051 18.874 17.0881 18.91 16.9711V16.8361C18.961 16.6602 18.9912 16.479 19 16.2961V3.69609C19 2.98001 18.7155 2.29325 18.2092 1.78691C17.7028 1.28056 17.0161 0.996094 16.3 0.996094ZM3.7 17.1961C3.46131 17.1961 3.23239 17.1013 3.0636 16.9325C2.89482 16.7637 2.8 16.5348 2.8 16.2961V12.4171L5.761 9.44709C5.84467 9.36274 5.94421 9.29578 6.05388 9.25009C6.16355 9.2044 6.28119 9.18088 6.4 9.18088C6.51881 9.18088 6.63645 9.2044 6.74612 9.25009C6.85579 9.29578 6.95533 9.36274 7.039 9.44709L14.779 17.1961H3.7ZM17.2 16.2961C17.1992 16.4071 17.1778 16.5169 17.137 16.6201C17.1164 16.664 17.0924 16.7061 17.065 16.7461C17.0409 16.7842 17.0138 16.8203 16.984 16.8541L12.169 12.0391L12.961 11.2471C13.0447 11.1627 13.1442 11.0958 13.2539 11.0501C13.3636 11.0044 13.4812 10.9809 13.6 10.9809C13.7188 10.9809 13.8364 11.0044 13.9461 11.0501C14.0558 11.0958 14.1553 11.1627 14.239 11.2471L17.2 14.2171V16.2961ZM17.2 11.6701L15.508 9.99609C14.9929 9.50739 14.31 9.23494 13.6 9.23494C12.89 9.23494 12.2071 9.50739 11.692 9.99609L10.9 10.7881L8.308 8.19609C7.79295 7.70739 7.11001 7.43494 6.4 7.43494C5.68999 7.43494 5.00705 7.70739 4.492 8.19609L2.8 9.87009V3.69609C2.8 3.4574 2.89482 3.22848 3.0636 3.0597C3.23239 2.89092 3.46131 2.79609 3.7 2.79609H16.3C16.5387 2.79609 16.7676 2.89092 16.9364 3.0597C17.1052 3.22848 17.2 3.4574 17.2 3.69609V11.6701ZM11.35 4.59609C11.083 4.59609 10.822 4.67527 10.6 4.82361C10.378 4.97195 10.2049 5.18279 10.1028 5.42947C10.0006 5.67615 9.97385 5.94759 10.0259 6.20947C10.078 6.47134 10.2066 6.71189 10.3954 6.90069C10.5842 7.08949 10.8248 7.21806 11.0866 7.27015C11.3485 7.32224 11.6199 7.29551 11.8666 7.19333C12.1133 7.09115 12.3241 6.91812 12.4725 6.69611C12.6208 6.47411 12.7 6.2131 12.7 5.94609C12.7 5.58805 12.5578 5.24467 12.3046 4.9915C12.0514 4.73833 11.708 4.59609 11.35 4.59609Z" fill="#141824"/>
</svg>
